<?xml version="1.0" standalone="no"?>
<!DOCTYPE svg PUBLIC "-//W3C//DTD SVG 20010904//EN"
 "http://www.w3.org/TR/2001/REC-SVG-20010904/DTD/svg10.dtd">
<svg version="1.0" xmlns="http://www.w3.org/2000/svg"
 width="1920.000000pt" height="1080.000000pt" viewBox="0 0 1920.000000 1080.000000"
 preserveAspectRatio="xMidYMid meet">
<metadata>
Created by potrace 1.16, written by Peter Selinger 2001-2019
</metadata>
<g transform="translate(0.000000,1080.000000) scale(0.100000,-0.100000)"
fill="#000000" stroke="none">
<path d="M0 8289 l0 -2512 51 5 c47 5 51 4 61 -21 6 -14 12 -60 15 -101 2 -41
9 -80 13 -85 5 -6 10 -28 12 -48 1 -20 6 -37 10 -37 4 0 8 -4 8 -10 0 -5 -17
-14 -37 -19 -33 -9 -45 -8 -85 13 l-48 23 0 -94 c0 -69 3 -93 13 -93 7 0 18
-14 24 -31 9 -23 17 -30 28 -25 10 4 31 -8 56 -32 49 -44 64 -53 104 -62 30
-6 30 -6 30 -71 0 -38 6 -73 13 -81 6 -8 13 -48 14 -89 2 -65 1 -74 -15 -73
-12 1 -17 -6 -17 -24 0 -14 -6 -33 -14 -41 -35 -39 -29 -63 28 -125 30 -32 58
-72 62 -88 3 -17 14 -49 25 -72 16 -36 17 -55 10 -145 -5 -66 -13 -106 -21
-111 -10 -6 -12 -30 -8 -95 4 -64 2 -99 -9 -132 -13 -37 -13 -47 -3 -53 9 -6
15 -43 18 -114 3 -59 9 -109 13 -112 14 -8 10 -87 -6 -114 -8 -14 -17 -32 -21
-41 -4 -12 -19 -17 -50 -17 -25 -1 -50 -5 -57 -9 -7 -4 -16 -8 -22 -9 -31 -3
-75 -18 -75 -25 0 -4 -9 -10 -19 -14 -11 -3 -22 -13 -25 -21 -3 -8 -2 -13 3
-10 5 3 16 -5 25 -19 10 -14 33 -29 58 -36 24 -6 48 -15 53 -19 6 -5 32 -14
58 -21 41 -10 49 -16 54 -40 3 -16 9 -29 14 -29 5 0 9 -6 9 -14 0 -8 10 -13
24 -13 40 0 44 26 66 422 6 99 15 226 21 283 8 73 8 142 0 240 -6 75 -16 225
-21 332 -16 322 -21 380 -34 380 -7 0 -27 14 -44 31 -36 35 -41 74 -18 129 12
30 14 31 24 14 10 -17 11 -17 12 -1 0 9 5 17 10 17 15 0 12 -57 -3 -63 -9 -4
-8 -8 3 -16 10 -7 17 -7 21 2 9 17 -18 551 -31 622 -13 72 -42 185 -80 315
-34 118 -50 219 -50 313 0 70 1 71 15 43 8 -15 15 -35 15 -42 0 -8 4 -14 9
-14 5 0 13 -9 16 -21 7 -21 7 -20 19 3 42 80 36 185 -14 280 l-32 59 26 42
c37 61 189 241 362 429 19 20 34 39 34 43 0 14 53 75 65 75 7 0 16 8 19 18 4
9 13 29 21 44 11 19 13 33 5 53 -8 20 -5 39 10 82 11 31 23 59 28 62 11 9 31
86 42 164 5 37 14 76 20 87 5 10 10 29 10 43 0 13 3 27 7 31 8 8 14 34 14 59
0 9 4 17 9 17 4 0 11 12 16 28 11 39 11 46 1 53 -12 8 21 59 38 59 7 0 15 10
19 22 4 18 8 20 18 10 13 -13 15 -17 17 -52 0 -11 6 -20 12 -20 7 0 9 9 6 23
-3 12 -8 32 -11 45 -6 29 39 84 52 64 7 -10 11 -5 16 18 3 18 6 630 6 1361 l0
1329 -570 0 -570 0 0 -2511z m539 -804 c-6 -28 -12 -56 -14 -63 -3 -7 -3 -14
-2 -16 1 -2 -6 -13 -17 -25 -11 -12 -16 -28 -13 -42 6 -21 -29 -118 -132 -369
-96 -233 -103 -250 -115 -250 -11 0 -33 55 -120 290 -55 151 -55 143 1 181 26
18 68 50 92 71 24 21 50 38 57 38 7 0 17 6 21 13 4 7 33 32 63 57 30 25 83 74
118 109 34 35 64 62 67 60 2 -2 -1 -27 -6 -54z m-285 -1409 c15 -60 32 -118
38 -130 6 -11 15 -37 19 -56 5 -19 17 -75 28 -125 35 -157 22 -185 -18 -40
-93 333 -102 375 -106 505 -3 104 -3 107 4 35 5 -44 20 -129 35 -189z m-70
-93 c7 -28 45 -158 73 -248 8 -27 16 -66 18 -85 2 -19 6 -42 9 -50 3 -8 11
-37 17 -65 15 -62 22 -455 8 -455 -11 0 -25 32 -33 76 -3 16 -15 72 -26 124
-57 256 -110 647 -96 705 8 33 22 32 30 -2z"/>
<path d="M19138 9455 c-3 -3 -50 -11 -104 -16 -55 -5 -112 -13 -129 -18 -17
-4 -42 -3 -58 3 -20 8 -30 8 -35 0 -4 -7 -26 -15 -50 -19 -24 -4 -45 -12 -47
-18 -2 -7 -6 -24 -9 -39 -8 -34 -22 -35 -47 -6 -19 21 -19 19 -19 -115 0 -111
3 -137 14 -137 17 0 26 -22 26 -66 0 -27 -4 -34 -20 -34 -19 0 -20 -7 -20
-204 0 -112 3 -211 6 -220 3 -9 13 -16 21 -16 9 0 13 -6 10 -14 -4 -9 1 -16
10 -18 15 -3 15 -4 0 -19 -9 -9 -13 -19 -10 -23 3 -3 -4 -14 -15 -25 l-22 -18
0 -1134 c0 -674 4 -1140 10 -1149 6 -9 5 -17 -3 -22 -8 -5 -7 -16 6 -43 18
-38 24 -116 8 -100 -5 6 -11 24 -14 40 -2 17 -4 -611 -4 -1395 -1 -784 1
-1416 4 -1405 3 11 9 25 14 31 5 6 10 24 11 39 2 18 11 31 26 38 12 6 25 22
29 36 7 33 23 52 34 45 8 -5 31 37 34 61 4 34 65 146 101 186 9 10 17 29 18
43 0 14 4 26 9 26 4 0 7 11 7 23 0 14 14 37 33 54 17 17 44 50 59 74 48 77
102 148 126 164 12 9 22 21 22 27 0 6 7 16 15 22 13 9 15 34 13 145 l-3 134
-39 -59 c-67 -99 -228 -374 -286 -486 -30 -59 -58 -104 -62 -100 -4 4 -1 52 6
107 7 55 14 141 15 190 3 132 17 287 35 395 27 161 85 543 121 805 20 138 37
254 38 259 4 11 87 37 98 31 3 -3 21 -58 39 -122 18 -65 34 -120 36 -122 2 -2
4 489 4 1093 l-1 1096 -29 -15 c-41 -21 -55 -19 -79 11 -21 27 -28 64 -12 64
5 0 11 9 14 21 4 15 11 19 25 14 11 -3 23 -1 27 5 12 19 33 11 28 -11 -4 -16
-2 -20 8 -17 11 4 15 31 17 117 2 104 1 112 -13 97 -19 -19 -23 -19 -63 -5
-34 12 -48 35 -32 54 6 7 8 20 4 29 -4 11 -1 16 13 16 10 0 23 10 28 22 11 24
45 33 57 15 4 -7 7 33 7 88 -1 78 -3 89 -8 52 -8 -51 -34 -88 -51 -71 -7 7 -4
28 9 67 11 31 16 59 11 62 -4 3 -6 13 -3 24 2 10 -5 37 -17 60 -12 24 -20 47
-18 53 5 14 55 17 55 3 0 -47 5 -75 12 -70 6 3 10 168 11 405 l1 400 -24 0
c-13 0 -28 -5 -35 -12 -16 -16 -46 17 -50 54 -2 23 3 31 32 45 34 16 37 16 56
-2 l20 -18 -2 219 -3 219 -25 3 c-14 2 -28 0 -32 -3z m-358 -1090 c7 -8 21
-15 31 -15 10 0 21 -5 24 -11 4 -6 14 -8 22 -5 12 5 14 1 10 -14 -3 -11 -1
-20 4 -20 9 0 3 -44 -9 -65 -3 -5 -6 -23 -6 -39 -1 -48 -28 -44 -54 7 -12 25
-19 52 -16 61 3 9 1 16 -5 16 -11 0 -33 38 -45 78 -6 18 -3 22 12 22 11 0 25
-7 32 -15z"/>
<path d="M9894 8891 c-93 -54 -226 -131 -295 -171 -68 -39 -172 -100 -231
-133 -60 -34 -108 -67 -108 -74 0 -6 55 20 123 59 67 39 244 141 393 227 295
170 327 190 304 190 -8 0 -92 -44 -186 -98z"/>
<path d="M9905 8643 c-137 -80 -342 -199 -455 -264 -255 -148 -236 -136 -228
-144 4 -4 128 63 275 148 147 85 356 205 463 267 107 62 202 118 210 126 40
39 -34 1 -265 -133z"/>
<path d="M9970 8425 c-146 -84 -348 -201 -450 -260 -102 -59 -203 -118 -225
-130 -224 -128 -350 -204 -353 -215 -5 -14 8 -7 323 175 116 67 230 133 255
147 25 14 90 51 145 83 132 77 379 219 485 280 47 27 87 50 89 51 1 2 1 7 0
12 -2 5 -123 -59 -269 -143z"/>
<path d="M10157 8277 c-60 -34 -116 -67 -125 -72 -9 -6 -53 -31 -97 -56 -77
-44 -390 -224 -585 -337 -52 -30 -109 -63 -126 -72 -86 -49 -300 -173 -303
-176 -2 -2 -1 -7 2 -10 6 -6 146 72 497 276 69 40 140 81 158 91 597 342 692
399 692 410 0 12 8 16 -113 -54z"/>
<path d="M10219 8059 c-57 -34 -122 -71 -144 -83 -118 -67 -1139 -656 -1144
-662 -2 -2 -2 -7 1 -10 7 -6 117 56 748 421 221 128 411 237 505 291 124 71
152 90 144 98 -3 3 -52 -22 -110 -55z"/>
<path d="M10265 7833 c-99 -58 -220 -129 -270 -158 -49 -29 -106 -62 -125 -72
-35 -20 -337 -195 -419 -242 -24 -14 -71 -42 -106 -61 -82 -46 -111 -67 -104
-74 5 -6 71 31 527 296 150 87 275 158 278 158 2 0 22 11 44 25 22 14 111 66
197 116 167 95 180 104 166 111 -4 3 -89 -42 -188 -99z"/>
<path d="M10405 7658 c-99 -58 -154 -89 -380 -220 -110 -64 -256 -148 -325
-188 -150 -87 -118 -68 -470 -270 -285 -163 -319 -185 -308 -195 3 -3 54 23
114 58 139 82 296 173 354 205 25 13 50 28 55 32 6 4 116 68 245 142 129 74
323 186 430 248 107 62 234 135 283 162 48 28 87 54 87 59 0 15 -11 10 -85
-33z"/>
<path d="M10296 7340 c-76 -44 -140 -80 -141 -80 -2 0 -40 -22 -85 -50 -45
-27 -83 -50 -84 -50 -2 0 -41 -22 -87 -49 -96 -55 -575 -332 -631 -365 -38
-21 -53 -44 -21 -32 9 4 134 75 277 158 144 83 308 178 366 211 200 114 412
237 513 297 20 12 37 26 37 31 0 5 -1 9 -3 9 -1 0 -65 -36 -141 -80z"/>
<path d="M10060 6949 c-135 -78 -273 -158 -308 -178 -35 -20 -73 -41 -85 -48
-165 -92 -412 -242 -415 -252 -5 -16 -8 -17 253 134 243 141 584 338 697 403
53 30 99 61 102 69 3 7 4 13 3 13 -1 0 -112 -64 -247 -141z"/>
<path d="M10255 6806 c-60 -34 -216 -124 -345 -198 -460 -265 -547 -315 -697
-403 -84 -48 -150 -92 -147 -97 3 -5 20 0 37 11 18 10 163 94 322 186 160 92
319 184 355 205 36 21 183 106 328 190 144 83 262 156 262 161 0 12 7 16 -115
-55z"/>
<path d="M10355 6612 c-16 -10 -106 -63 -200 -117 -93 -54 -228 -132 -299
-173 -72 -41 -144 -82 -160 -92 -17 -10 -87 -50 -156 -90 -69 -40 -200 -116
-292 -169 -93 -53 -168 -100 -168 -104 0 -15 19 -5 434 235 931 536 886 509
886 520 0 12 -13 9 -45 -10z"/>
<path d="M10420 6394 c-41 -25 -156 -92 -255 -149 -99 -56 -236 -135 -305
-175 -69 -40 -141 -82 -160 -92 -387 -218 -666 -388 -636 -388 2 0 75 41 163
91 87 51 246 142 353 204 107 62 251 145 320 185 69 40 139 80 155 90 345 198
455 264 455 271 0 15 -12 10 -90 -37z"/>
<path d="M10545 6211 c-16 -10 -93 -54 -170 -98 -77 -45 -295 -171 -485 -281
-549 -317 -752 -434 -802 -461 -26 -14 -48 -32 -48 -39 0 -9 14 -5 43 11 23
14 155 90 292 169 553 320 857 496 1024 591 182 104 218 127 191 127 -8 0 -28
-9 -45 -19z"/>
<path d="M10495 5927 c-60 -35 -218 -126 -350 -202 -132 -76 -257 -148 -277
-159 -21 -12 -38 -26 -38 -33 0 -12 38 9 415 226 349 202 365 211 365 221 0
14 7 17 -115 -53z"/>
<path d="M10455 5651 c-70 -42 -341 -200 -414 -241 -145 -82 -181 -105 -181
-112 0 -4 3 -8 6 -8 6 0 374 210 474 270 25 15 82 48 128 74 45 27 82 52 82
57 0 15 -11 10 -95 -40z"/>
<path d="M9660 5446 c-41 -24 -131 -76 -200 -116 -69 -40 -154 -90 -190 -110
-227 -129 -269 -155 -259 -164 3 -3 83 40 179 95 96 56 254 146 350 201 161
93 229 138 205 138 -6 0 -44 -20 -85 -44z"/>
<path d="M10195 5245 c-384 -221 -352 -201 -343 -210 4 -4 54 20 110 53 88 51
155 90 333 192 17 9 71 41 122 69 85 49 128 81 107 81 -5 0 -153 -83 -329
-185z"/>
<path d="M470 3186 c0 -14 -4 -27 -9 -31 -20 -12 -5 -49 36 -93 24 -25 43 -49
43 -54 0 -4 6 -8 14 -8 8 0 18 -9 21 -21 6 -16 -1 -28 -29 -51 -20 -16 -36
-35 -36 -42 0 -6 -10 -12 -23 -14 -44 -3 -98 -33 -115 -62 -9 -17 -22 -30 -29
-30 -6 0 -16 -12 -21 -27 -6 -16 -23 -42 -39 -59 -34 -37 -38 -61 -14 -93 19
-25 88 -39 136 -27 22 6 25 9 15 21 -10 12 -9 15 4 15 10 0 15 -4 12 -9 -3 -4
1 -17 9 -27 8 -10 15 -29 15 -41 0 -12 5 -34 12 -48 10 -22 17 -25 37 -21 73
17 79 17 85 -2 9 -28 -1 -207 -11 -205 -11 2 -37 -162 -28 -177 3 -5 2 -10 -3
-10 -5 0 -12 -24 -15 -54 -7 -73 -21 -96 -126 -205 -83 -87 -153 -193 -137
-208 3 -4 19 6 35 21 17 16 39 34 50 40 11 6 47 29 80 51 80 53 112 117 164
323 15 61 30 53 23 -13 -9 -86 -26 -140 -82 -263 -21 -44 -15 -88 10 -84 10 2
22 -2 27 -9 11 -19 -1 -69 -23 -91 -26 -26 -49 -83 -42 -101 3 -10 28 -17 69
-22 36 -3 81 -15 102 -25 20 -10 42 -16 49 -13 17 6 28 -15 15 -30 -5 -7 -10
-22 -10 -32 0 -11 -4 -38 -10 -59 -5 -22 -7 -44 -4 -49 11 -18 42 27 53 76 6
29 17 68 24 87 31 84 46 140 46 171 0 19 5 41 10 49 8 12 10 12 10 1 0 -28 13
-1 17 35 5 45 62 176 74 168 5 -3 12 8 15 25 4 17 10 31 14 31 4 0 10 8 14 18
3 9 10 24 15 32 5 8 24 44 42 80 18 36 43 78 56 93 26 33 32 87 8 87 -19 0
-19 36 0 74 26 48 20 71 -21 84 l-37 11 7 -45 c7 -51 -4 -56 -42 -21 l-25 22
19 -30 c10 -16 27 -36 36 -43 26 -19 22 -59 -7 -85 -13 -12 -56 -84 -94 -161
-39 -76 -78 -147 -88 -158 -17 -18 -18 -19 -24 -1 -15 38 -9 84 18 124 19 28
33 75 49 157 27 136 29 173 10 210 -23 45 -54 197 -77 374 -18 136 -20 170 -9
183 7 8 17 15 23 15 5 0 2 -9 -8 -21 -17 -18 -17 -24 -6 -52 14 -35 19 -56 50
-197 40 -191 65 -264 97 -291 16 -13 16 -12 5 8 -23 45 -30 114 -15 170 8 29
13 57 12 61 -1 4 6 25 16 47 21 49 29 39 46 -62 10 -62 9 -75 -5 -103 -18 -34
-13 -84 7 -78 7 3 23 24 36 48 23 40 24 48 14 89 -7 26 -15 66 -18 91 -5 37
-4 43 7 33 37 -36 39 -22 39 261 0 251 -1 274 -17 281 -23 9 -366 20 -386 12
-13 -5 -8 -20 25 -89 22 -46 49 -95 60 -110 11 -16 16 -28 11 -29 -4 0 3 -5
16 -10 36 -14 17 -23 -23 -9 -34 11 -116 93 -116 116 0 6 -7 17 -15 24 -8 7
-17 28 -21 46 -10 56 -25 64 -120 64 -82 0 -84 0 -84 -24z"/>
<path d="M280 2888 c-19 -35 -39 -76 -45 -93 -18 -52 -152 -145 -210 -145 -23
0 -25 -4 -25 -45 l0 -45 40 0 c51 0 107 28 144 74 49 60 158 316 135 316 -3 0
-20 -28 -39 -62z"/>
<path d="M7375 1940 c-11 -4 -38 -31 -60 -59 -22 -28 -43 -51 -47 -51 -5 0 -8
25 -8 55 0 48 -2 55 -20 55 -20 0 -20 -7 -20 -270 0 -263 0 -270 20 -270 19 0
20 7 20 197 0 108 2 194 5 191 3 -3 32 -84 64 -179 74 -220 70 -209 93 -209
23 0 28 -19 -51 216 l-65 191 52 62 c29 34 50 67 47 72 -4 5 -7 9 -8 8 -1 0
-11 -4 -22 -9z"/>
<path d="M7887 1943 c-4 -3 -7 -127 -7 -275 l0 -268 25 0 26 0 -1 236 c-1 130
0 237 2 239 2 2 27 -11 55 -28 l52 -32 1 -207 c0 -201 1 -208 20 -208 20 0 20
7 20 270 0 263 0 270 -20 270 -16 0 -20 -7 -20 -35 0 -19 -3 -35 -7 -35 -7 0
-26 10 -109 61 -17 10 -34 16 -37 12z"/>
<path d="M7499 1911 c-47 -48 -41 -93 31 -234 87 -172 81 -226 -28 -237 -34
-4 -48 -10 -50 -22 -3 -16 5 -18 53 -18 51 0 60 3 91 34 30 30 34 40 34 84 0
42 -10 70 -60 167 -84 163 -81 215 9 215 24 0 31 4 31 20 0 17 -7 20 -41 20
-31 0 -47 -6 -70 -29z"/>
<path d="M7680 1875 c0 -51 -3 -65 -15 -65 -8 0 -15 -4 -15 -9 0 -5 7 -16 15
-25 12 -12 15 -48 15 -195 l0 -181 70 0 c63 0 70 2 70 20 0 17 -7 20 -50 20
l-50 0 0 165 0 165 56 0 c47 0 55 3 50 16 -3 9 -6 18 -6 20 0 2 -22 4 -50 4
l-50 0 0 45 0 45 50 0 c43 0 50 3 50 20 0 18 -7 20 -70 20 l-70 0 0 -65z"/>
<path d="M8160 1670 c0 -263 0 -270 20 -270 20 0 20 7 20 270 0 263 0 270 -20
270 -20 0 -20 -7 -20 -270z"/>
<path d="M8304 1918 c-4 -7 -13 -35 -20 -63 -6 -27 -16 -49 -23 -47 -16 3 -14
-14 4 -32 12 -12 15 -48 15 -195 0 -145 3 -181 14 -181 15 0 26 117 26 282 0
72 3 98 13 98 8 0 7 4 -3 10 -11 7 -15 26 -13 75 1 67 0 74 -13 53z"/>
<path d="M18958 1717 c-9 -12 -84 -96 -167 -187 l-151 -164 0 -179 c0 -158 2
-178 15 -167 12 10 16 7 25 -16 14 -37 9 -68 -12 -72 -11 -2 -18 5 -21 20 -2
13 -5 -68 -6 -178 -1 -190 0 -203 20 -228 22 -28 20 -56 -6 -56 -13 0 -15 -32
-15 -245 l0 -245 280 0 280 0 0 280 c0 271 -1 280 -19 269 -26 -17 -48 -5 -56
30 -5 22 -1 35 16 55 28 32 35 32 42 4 4 -12 9 -20 12 -16 3 3 1 17 -5 32 -5
15 -10 44 -10 64 0 47 -16 103 -32 114 -23 14 -31 8 -14 -11 9 -10 19 -36 23
-57 5 -37 5 -38 -10 -19 -9 11 -17 27 -17 36 0 21 -64 89 -83 89 -8 0 -20 7
-27 15 -16 19 -7 19 32 -1 29 -15 31 -15 26 3 -3 10 -13 35 -22 56 -9 20 -12
37 -8 37 16 0 42 -36 48 -68 4 -18 10 -35 14 -37 15 -9 40 7 40 25 0 23 -16
35 -23 18 -3 -7 -3 5 0 27 2 22 0 67 -5 100 -5 33 -10 48 -11 33 -1 -34 -9
-35 -38 -4 -29 30 -31 86 -4 93 17 4 18 13 15 74 -2 37 -10 92 -18 121 -8 29
-20 72 -26 96 -8 32 -16 42 -31 42 -19 0 -29 17 -42 71 -6 22 -3 28 14 32 19
5 21 11 16 44 -4 21 -7 50 -7 66 0 33 -9 34 -32 4z"/>
<path d="M646 1232 c-5 -8 -29 -141 -46 -257 -27 -181 -65 -344 -101 -433 -39
-95 -49 -129 -42 -136 4 -3 12 -1 19 5 7 6 23 9 36 7 20 -3 23 -10 26 -49 2
-25 -6 -100 -18 -166 -11 -66 -20 -139 -20 -162 0 -39 2 -41 29 -41 34 0 28
-19 65 205 45 266 78 545 71 599 -4 28 -16 77 -27 108 -21 60 -21 79 6 183 20
78 27 145 16 145 -5 0 -11 -4 -14 -8z"/>
<path d="M1001 689 c-25 -5 -48 -14 -53 -21 -6 -10 -8 -10 -8 0 0 7 -14 12
-35 12 -40 0 -43 -11 -22 -69 13 -39 36 -63 51 -53 5 3 7 -2 3 -11 -3 -10 -2
-17 4 -17 5 0 7 -11 3 -24 -3 -13 -1 -27 5 -30 6 -4 11 -14 11 -22 0 -8 11
-39 24 -67 55 -119 64 -147 61 -184 -1 -21 2 -41 9 -45 7 -5 4 -8 -8 -8 -29 0
-78 61 -129 164 -48 98 -61 114 -73 95 -3 -6 -1 -15 6 -19 9 -5 9 -13 2 -27
-6 -10 -10 -61 -10 -113 0 -52 -1 -102 -2 -110 -2 -8 -2 -43 -2 -77 l2 -63
103 0 c102 0 102 0 114 27 6 16 14 47 18 71 6 38 9 42 36 42 l29 0 -1 208 c0
114 -4 230 -9 257 -4 28 -8 42 -9 33 -1 -12 -9 -18 -24 -18 -35 0 -41 12 -15
32 15 11 18 18 9 18 -8 0 -22 6 -30 13 -12 10 -28 11 -60 6z"/>
</g>
</svg>
